<mxfile host="app.diagrams.net" agent="Mozilla/5.0 (Windows NT 10.0; Win64; x64) AppleWebKit/537.36 (KHTML, like Gecko) Chrome/131.0.0.0 Safari/537.36" version="24.9.0">
  <diagram name="Page-1" id="vBJrLYspQMKeFBxM0MMH">
    <mxGraphModel dx="-2928" dy="4170" grid="1" gridSize="10" guides="1" tooltips="1" connect="1" arrows="1" fold="1" page="1" pageScale="1" pageWidth="2339" pageHeight="3300" math="0" shadow="0">
      <root>
        <mxCell id="0" />
        <mxCell id="1" parent="0" />
        <mxCell id="slHZOAXOlYk_Wakw3gcA-1" value="" style="rounded=0;whiteSpace=wrap;html=1;" vertex="1" parent="1">
          <mxGeometry x="5350" y="-1240" width="320" height="635.75" as="geometry" />
        </mxCell>
        <mxCell id="slHZOAXOlYk_Wakw3gcA-2" value="Register" style="ellipse;whiteSpace=wrap;html=1;" vertex="1" parent="1">
          <mxGeometry x="5440" y="-1217.25" width="160" height="50" as="geometry" />
        </mxCell>
        <mxCell id="slHZOAXOlYk_Wakw3gcA-3" value="Login" style="ellipse;whiteSpace=wrap;html=1;" vertex="1" parent="1">
          <mxGeometry x="5440" y="-1138" width="160" height="50" as="geometry" />
        </mxCell>
        <mxCell id="slHZOAXOlYk_Wakw3gcA-4" value="Search&amp;nbsp;" style="ellipse;whiteSpace=wrap;html=1;" vertex="1" parent="1">
          <mxGeometry x="5440" y="-1056.5" width="160" height="50" as="geometry" />
        </mxCell>
        <mxCell id="slHZOAXOlYk_Wakw3gcA-5" value="Fill Form" style="ellipse;whiteSpace=wrap;html=1;" vertex="1" parent="1">
          <mxGeometry x="5440" y="-973" width="160" height="50" as="geometry" />
        </mxCell>
        <mxCell id="slHZOAXOlYk_Wakw3gcA-6" value="" style="endArrow=classic;html=1;rounded=0;exitX=0.5;exitY=1;exitDx=0;exitDy=0;entryX=0.5;entryY=0;entryDx=0;entryDy=0;" edge="1" parent="1" source="slHZOAXOlYk_Wakw3gcA-2" target="slHZOAXOlYk_Wakw3gcA-3">
          <mxGeometry width="50" height="50" relative="1" as="geometry">
            <mxPoint x="5518.63" y="-1158" as="sourcePoint" />
            <mxPoint x="5519" y="-1138" as="targetPoint" />
          </mxGeometry>
        </mxCell>
        <mxCell id="slHZOAXOlYk_Wakw3gcA-7" value="" style="endArrow=classic;html=1;rounded=0;entryX=0.5;entryY=0;entryDx=0;entryDy=0;exitX=0.498;exitY=1.025;exitDx=0;exitDy=0;exitPerimeter=0;" edge="1" parent="1" source="slHZOAXOlYk_Wakw3gcA-3" target="slHZOAXOlYk_Wakw3gcA-4">
          <mxGeometry width="50" height="50" relative="1" as="geometry">
            <mxPoint x="5519.63" y="-1087" as="sourcePoint" />
            <mxPoint x="5520" y="-1067" as="targetPoint" />
          </mxGeometry>
        </mxCell>
        <mxCell id="slHZOAXOlYk_Wakw3gcA-8" value="" style="endArrow=classic;html=1;rounded=0;entryX=0.5;entryY=0;entryDx=0;entryDy=0;exitX=0.495;exitY=1.012;exitDx=0;exitDy=0;exitPerimeter=0;" edge="1" parent="1" source="slHZOAXOlYk_Wakw3gcA-4" target="slHZOAXOlYk_Wakw3gcA-5">
          <mxGeometry width="50" height="50" relative="1" as="geometry">
            <mxPoint x="5520" y="-1007.25" as="sourcePoint" />
            <mxPoint x="5520" y="-997" as="targetPoint" />
          </mxGeometry>
        </mxCell>
        <mxCell id="slHZOAXOlYk_Wakw3gcA-9" value="" style="endArrow=classic;html=1;rounded=0;entryX=0.5;entryY=0;entryDx=0;entryDy=0;exitX=0.5;exitY=1;exitDx=0;exitDy=0;" edge="1" parent="1" source="slHZOAXOlYk_Wakw3gcA-5" target="slHZOAXOlYk_Wakw3gcA-15">
          <mxGeometry width="50" height="50" relative="1" as="geometry">
            <mxPoint x="5520" y="-927.25" as="sourcePoint" />
            <mxPoint x="5520" y="-925" as="targetPoint" />
          </mxGeometry>
        </mxCell>
        <mxCell id="slHZOAXOlYk_Wakw3gcA-10" value="" style="endArrow=none;html=1;rounded=0;entryX=0;entryY=0.5;entryDx=0;entryDy=0;" edge="1" parent="1" target="slHZOAXOlYk_Wakw3gcA-2">
          <mxGeometry width="50" height="50" relative="1" as="geometry">
            <mxPoint x="5260" y="-982.88" as="sourcePoint" />
            <mxPoint x="5400" y="-1114" as="targetPoint" />
          </mxGeometry>
        </mxCell>
        <mxCell id="slHZOAXOlYk_Wakw3gcA-11" value="" style="endArrow=none;html=1;rounded=0;entryX=0;entryY=0.5;entryDx=0;entryDy=0;" edge="1" parent="1" target="slHZOAXOlYk_Wakw3gcA-3">
          <mxGeometry width="50" height="50" relative="1" as="geometry">
            <mxPoint x="5260" y="-972.88" as="sourcePoint" />
            <mxPoint x="5450" y="-1170" as="targetPoint" />
          </mxGeometry>
        </mxCell>
        <mxCell id="slHZOAXOlYk_Wakw3gcA-12" value="" style="endArrow=none;html=1;rounded=0;entryX=0.006;entryY=0.391;entryDx=0;entryDy=0;entryPerimeter=0;" edge="1" parent="1" target="slHZOAXOlYk_Wakw3gcA-4">
          <mxGeometry width="50" height="50" relative="1" as="geometry">
            <mxPoint x="5260" y="-962.88" as="sourcePoint" />
            <mxPoint x="5460" y="-1160" as="targetPoint" />
          </mxGeometry>
        </mxCell>
        <mxCell id="slHZOAXOlYk_Wakw3gcA-13" value="" style="endArrow=none;html=1;rounded=0;entryX=0;entryY=0.5;entryDx=0;entryDy=0;" edge="1" parent="1" target="slHZOAXOlYk_Wakw3gcA-5">
          <mxGeometry width="50" height="50" relative="1" as="geometry">
            <mxPoint x="5260" y="-952.88" as="sourcePoint" />
            <mxPoint x="5470" y="-1150" as="targetPoint" />
          </mxGeometry>
        </mxCell>
        <mxCell id="slHZOAXOlYk_Wakw3gcA-14" value="" style="endArrow=none;html=1;rounded=0;entryX=0;entryY=0.5;entryDx=0;entryDy=0;" edge="1" parent="1" target="slHZOAXOlYk_Wakw3gcA-17">
          <mxGeometry width="50" height="50" relative="1" as="geometry">
            <mxPoint x="5260" y="-932.88" as="sourcePoint" />
            <mxPoint x="5480" y="-1140" as="targetPoint" />
          </mxGeometry>
        </mxCell>
        <mxCell id="slHZOAXOlYk_Wakw3gcA-15" value="Sugegstions" style="ellipse;whiteSpace=wrap;html=1;" vertex="1" parent="1">
          <mxGeometry x="5440" y="-898.25" width="160" height="50" as="geometry" />
        </mxCell>
        <mxCell id="slHZOAXOlYk_Wakw3gcA-16" value="" style="endArrow=classic;html=1;rounded=0;entryX=0.5;entryY=0;entryDx=0;entryDy=0;" edge="1" parent="1" target="slHZOAXOlYk_Wakw3gcA-17">
          <mxGeometry width="50" height="50" relative="1" as="geometry">
            <mxPoint x="5520" y="-824" as="sourcePoint" />
            <mxPoint x="5520" y="-764" as="targetPoint" />
          </mxGeometry>
        </mxCell>
        <mxCell id="slHZOAXOlYk_Wakw3gcA-17" value="View Recipe" style="ellipse;whiteSpace=wrap;html=1;" vertex="1" parent="1">
          <mxGeometry x="5440" y="-824" width="160" height="50" as="geometry" />
        </mxCell>
        <mxCell id="slHZOAXOlYk_Wakw3gcA-18" value="" style="endArrow=classic;html=1;rounded=0;exitX=0.5;exitY=1;exitDx=0;exitDy=0;" edge="1" parent="1" source="slHZOAXOlYk_Wakw3gcA-15" target="slHZOAXOlYk_Wakw3gcA-17">
          <mxGeometry width="50" height="50" relative="1" as="geometry">
            <mxPoint x="5529.63" y="-935" as="sourcePoint" />
            <mxPoint x="5530" y="-904" as="targetPoint" />
          </mxGeometry>
        </mxCell>
        <mxCell id="slHZOAXOlYk_Wakw3gcA-19" value="" style="endArrow=none;html=1;rounded=0;entryX=0;entryY=0.5;entryDx=0;entryDy=0;" edge="1" parent="1" target="slHZOAXOlYk_Wakw3gcA-15">
          <mxGeometry width="50" height="50" relative="1" as="geometry">
            <mxPoint x="5260" y="-942.88" as="sourcePoint" />
            <mxPoint x="5450" y="-809" as="targetPoint" />
          </mxGeometry>
        </mxCell>
        <mxCell id="slHZOAXOlYk_Wakw3gcA-20" value="User" style="shape=umlActor;verticalLabelPosition=bottom;verticalAlign=top;html=1;outlineConnect=0;" vertex="1" parent="1">
          <mxGeometry x="5210" y="-988.88" width="30" height="60" as="geometry" />
        </mxCell>
        <mxCell id="slHZOAXOlYk_Wakw3gcA-21" value="Manage&lt;div&gt;&amp;nbsp;Recipes/Content&lt;/div&gt;" style="ellipse;whiteSpace=wrap;html=1;" vertex="1" parent="1">
          <mxGeometry x="5440" y="-677" width="160" height="50" as="geometry" />
        </mxCell>
        <mxCell id="slHZOAXOlYk_Wakw3gcA-22" value="" style="edgeStyle=orthogonalEdgeStyle;rounded=0;orthogonalLoop=1;jettySize=auto;html=1;" edge="1" parent="1" source="slHZOAXOlYk_Wakw3gcA-23" target="slHZOAXOlYk_Wakw3gcA-21">
          <mxGeometry relative="1" as="geometry" />
        </mxCell>
        <mxCell id="slHZOAXOlYk_Wakw3gcA-23" value="Logout " style="ellipse;whiteSpace=wrap;html=1;" vertex="1" parent="1">
          <mxGeometry x="5440" y="-747.25" width="160" height="50" as="geometry" />
        </mxCell>
        <mxCell id="slHZOAXOlYk_Wakw3gcA-24" value="" style="edgeStyle=orthogonalEdgeStyle;rounded=0;orthogonalLoop=1;jettySize=auto;html=1;entryX=0.5;entryY=0;entryDx=0;entryDy=0;" edge="1" parent="1" target="slHZOAXOlYk_Wakw3gcA-23">
          <mxGeometry relative="1" as="geometry">
            <mxPoint x="5519.87" y="-774" as="sourcePoint" />
            <mxPoint x="5519.87" y="-748" as="targetPoint" />
          </mxGeometry>
        </mxCell>
        <mxCell id="slHZOAXOlYk_Wakw3gcA-25" value="" style="endArrow=none;html=1;rounded=0;entryX=0;entryY=0.5;entryDx=0;entryDy=0;" edge="1" parent="1" target="slHZOAXOlYk_Wakw3gcA-23">
          <mxGeometry width="50" height="50" relative="1" as="geometry">
            <mxPoint x="5260" y="-922.88" as="sourcePoint" />
            <mxPoint x="5420" y="-772.25" as="targetPoint" />
          </mxGeometry>
        </mxCell>
        <mxCell id="slHZOAXOlYk_Wakw3gcA-26" value="Admin" style="shape=umlActor;verticalLabelPosition=bottom;verticalAlign=top;html=1;outlineConnect=0;" vertex="1" parent="1">
          <mxGeometry x="5790" y="-982.88" width="30" height="60" as="geometry" />
        </mxCell>
        <mxCell id="slHZOAXOlYk_Wakw3gcA-27" value="" style="endArrow=none;html=1;rounded=0;exitX=1;exitY=0.5;exitDx=0;exitDy=0;" edge="1" parent="1" source="slHZOAXOlYk_Wakw3gcA-5">
          <mxGeometry width="50" height="50" relative="1" as="geometry">
            <mxPoint x="5600" y="-950.5" as="sourcePoint" />
            <mxPoint x="5770" y="-947.88" as="targetPoint" />
          </mxGeometry>
        </mxCell>
        <mxCell id="slHZOAXOlYk_Wakw3gcA-28" value="" style="endArrow=none;html=1;rounded=0;exitX=1;exitY=0.5;exitDx=0;exitDy=0;" edge="1" parent="1" source="slHZOAXOlYk_Wakw3gcA-2">
          <mxGeometry width="50" height="50" relative="1" as="geometry">
            <mxPoint x="5280" y="-962.88" as="sourcePoint" />
            <mxPoint x="5780" y="-962.88" as="targetPoint" />
          </mxGeometry>
        </mxCell>
        <mxCell id="slHZOAXOlYk_Wakw3gcA-29" value="" style="endArrow=none;html=1;rounded=0;exitX=1.001;exitY=0.435;exitDx=0;exitDy=0;exitPerimeter=0;" edge="1" parent="1" source="slHZOAXOlYk_Wakw3gcA-3">
          <mxGeometry width="50" height="50" relative="1" as="geometry">
            <mxPoint x="5270" y="-972.88" as="sourcePoint" />
            <mxPoint x="5770" y="-962.88" as="targetPoint" />
          </mxGeometry>
        </mxCell>
        <mxCell id="slHZOAXOlYk_Wakw3gcA-30" value="" style="endArrow=none;html=1;rounded=0;exitX=1;exitY=0.5;exitDx=0;exitDy=0;" edge="1" parent="1" source="slHZOAXOlYk_Wakw3gcA-23">
          <mxGeometry width="50" height="50" relative="1" as="geometry">
            <mxPoint x="5800" y="-874.63" as="sourcePoint" />
            <mxPoint x="5770" y="-932.88" as="targetPoint" />
          </mxGeometry>
        </mxCell>
        <mxCell id="slHZOAXOlYk_Wakw3gcA-31" value="" style="endArrow=none;html=1;rounded=0;exitX=1;exitY=0.5;exitDx=0;exitDy=0;" edge="1" parent="1" source="slHZOAXOlYk_Wakw3gcA-21">
          <mxGeometry width="50" height="50" relative="1" as="geometry">
            <mxPoint x="5700" y="-889.63" as="sourcePoint" />
            <mxPoint x="5780" y="-922.88" as="targetPoint" />
          </mxGeometry>
        </mxCell>
        <mxCell id="slHZOAXOlYk_Wakw3gcA-32" value="Module" style="shape=module;align=left;spacingLeft=20;align=center;verticalAlign=top;whiteSpace=wrap;html=1;" vertex="1" parent="1">
          <mxGeometry x="6000" y="-1200" width="220" height="210" as="geometry" />
        </mxCell>
        <mxCell id="slHZOAXOlYk_Wakw3gcA-34" value="&amp;laquo;Annotation&amp;raquo;&lt;br/&gt;&lt;b&gt;Component&lt;/b&gt;" style="html=1;dropTarget=0;whiteSpace=wrap;" vertex="1" parent="1">
          <mxGeometry x="6035" y="-1167.25" width="170" height="40" as="geometry" />
        </mxCell>
        <mxCell id="slHZOAXOlYk_Wakw3gcA-35" value="" style="shape=module;jettyWidth=8;jettyHeight=4;" vertex="1" parent="slHZOAXOlYk_Wakw3gcA-34">
          <mxGeometry x="1" width="20" height="20" relative="1" as="geometry">
            <mxPoint x="-27" y="7" as="offset" />
          </mxGeometry>
        </mxCell>
        <mxCell id="slHZOAXOlYk_Wakw3gcA-36" value="&amp;laquo;Annotation&amp;raquo;&lt;br/&gt;&lt;b&gt;Component&lt;/b&gt;" style="html=1;dropTarget=0;whiteSpace=wrap;" vertex="1" parent="1">
          <mxGeometry x="6035" y="-1110" width="170" height="40" as="geometry" />
        </mxCell>
        <mxCell id="slHZOAXOlYk_Wakw3gcA-37" value="" style="shape=module;jettyWidth=8;jettyHeight=4;" vertex="1" parent="slHZOAXOlYk_Wakw3gcA-36">
          <mxGeometry x="1" width="20" height="20" relative="1" as="geometry">
            <mxPoint x="-27" y="7" as="offset" />
          </mxGeometry>
        </mxCell>
        <mxCell id="slHZOAXOlYk_Wakw3gcA-38" value="&amp;laquo;Annotation&amp;raquo;&lt;br/&gt;&lt;b&gt;Component&lt;/b&gt;" style="html=1;dropTarget=0;whiteSpace=wrap;" vertex="1" parent="1">
          <mxGeometry x="6035" y="-1051.5" width="170" height="40" as="geometry" />
        </mxCell>
        <mxCell id="slHZOAXOlYk_Wakw3gcA-39" value="" style="shape=module;jettyWidth=8;jettyHeight=4;" vertex="1" parent="slHZOAXOlYk_Wakw3gcA-38">
          <mxGeometry x="1" width="20" height="20" relative="1" as="geometry">
            <mxPoint x="-27" y="7" as="offset" />
          </mxGeometry>
        </mxCell>
        <mxCell id="slHZOAXOlYk_Wakw3gcA-44" value="" style="rounded=0;whiteSpace=wrap;html=1;" vertex="1" parent="1">
          <mxGeometry x="6015" y="-960" width="210" height="110" as="geometry" />
        </mxCell>
        <mxCell id="slHZOAXOlYk_Wakw3gcA-45" value="&amp;laquo;Annotation&amp;raquo;&lt;br/&gt;&lt;b&gt;Component&lt;/b&gt;" style="html=1;dropTarget=0;whiteSpace=wrap;" vertex="1" parent="1">
          <mxGeometry x="6000" y="-697.25" width="170" height="40" as="geometry" />
        </mxCell>
        <mxCell id="slHZOAXOlYk_Wakw3gcA-46" value="" style="shape=module;jettyWidth=8;jettyHeight=4;" vertex="1" parent="slHZOAXOlYk_Wakw3gcA-45">
          <mxGeometry x="1" width="20" height="20" relative="1" as="geometry">
            <mxPoint x="-27" y="7" as="offset" />
          </mxGeometry>
        </mxCell>
        <mxCell id="slHZOAXOlYk_Wakw3gcA-47" value="Module" style="shape=module;align=left;spacingLeft=20;align=center;verticalAlign=top;whiteSpace=wrap;html=1;" vertex="1" parent="1">
          <mxGeometry x="6330" y="-960" width="220" height="210" as="geometry" />
        </mxCell>
        <mxCell id="slHZOAXOlYk_Wakw3gcA-48" value="package" style="shape=folder;fontStyle=1;spacingTop=10;tabWidth=40;tabHeight=14;tabPosition=left;html=1;whiteSpace=wrap;" vertex="1" parent="1">
          <mxGeometry x="6390" y="-702.25" width="70" height="50" as="geometry" />
        </mxCell>
      </root>
    </mxGraphModel>
  </diagram>
</mxfile>
